<?xml version="1.0" standalone="no"?>
<!DOCTYPE svg PUBLIC "-//W3C//DTD SVG 20010904//EN"
 "http://www.w3.org/TR/2001/REC-SVG-20010904/DTD/svg10.dtd">
<svg version="1.0" xmlns="http://www.w3.org/2000/svg"
 width="864.000000pt" height="864.000000pt" viewBox="0 0 864.000000 864.000000"
 preserveAspectRatio="xMidYMid meet">
<metadata>
Created by potrace 1.14, written by Peter Selinger 2001-2017
</metadata>
<g transform="translate(0.000000,864.000000) scale(0.100000,-0.100000)"
fill="#000000" stroke="none">
<path d="M5672 8624 c-12 -8 -22 -12 -22 -7 0 4 -4 4 -8 -2 -4 -5 -34 -24 -67
-41 -33 -17 -109 -57 -170 -89 -60 -32 -157 -82 -215 -113 -58 -30 -136 -72
-175 -92 -38 -21 -117 -62 -175 -93 -58 -30 -141 -74 -185 -97 -44 -24 -123
-65 -175 -92 -52 -27 -101 -54 -107 -60 -7 -6 -13 -7 -13 -2 0 5 -4 4 -8 -1
-4 -6 -54 -34 -112 -64 -58 -29 -108 -59 -112 -65 -4 -6 -8 -8 -8 -4 0 5 -37
-12 -82 -37 -46 -25 -108 -57 -138 -73 -30 -15 -57 -29 -60 -32 -3 -3 -34 -20
-70 -37 -67 -34 -231 -120 -400 -210 -52 -28 -124 -66 -160 -84 -36 -19 -68
-38 -72 -44 -4 -5 -8 -6 -8 -1 0 5 -6 4 -12 -1 -14 -11 -111 -63 -308 -166
-69 -36 -158 -82 -198 -103 -164 -87 -193 -103 -337 -178 -224 -117 -299 -158
-310 -167 -5 -5 -17 -9 -27 -9 -10 0 -18 -4 -18 -10 0 -5 -4 -10 -9 -10 -4 0
-109 -53 -232 -118 -123 -65 -231 -121 -239 -125 -8 -4 -55 -29 -105 -55 l-89
-49 -1 -1611 0 -1612 125 -62 c69 -34 127 -62 130 -63 3 0 59 -27 125 -59 112
-55 251 -122 525 -254 63 -30 174 -83 245 -118 72 -35 134 -64 138 -64 5 0 22
-9 38 -21 16 -11 29 -18 29 -14 0 3 11 -2 24 -10 l24 -16 0 128 c1 70 1 749 2
1508 l1 1380 127 63 c265 131 856 433 869 443 7 6 13 9 13 5 0 -3 17 4 38 16
20 11 177 91 347 177 171 86 312 159 313 164 2 4 11 7 21 7 9 0 21 4 26 9 6 5
138 73 295 152 157 79 288 148 291 152 3 5 8 8 10 7 4 -3 84 37 449 222 l245
125 1 847 c1 465 1 846 0 846 -1 0 -12 -7 -24 -16z"/>
<path d="M5706 5710 c-49 -28 -90 -50 -92 -50 -1 0 -87 -47 -191 -103 -103
-57 -224 -123 -268 -147 -44 -23 -105 -56 -135 -73 -105 -59 -215 -118 -250
-135 -19 -9 -37 -20 -40 -23 -3 -3 -18 -12 -35 -20 -33 -17 -134 -71 -297
-160 -59 -33 -111 -59 -117 -59 -6 0 -11 -3 -11 -8 0 -4 -15 -13 -32 -21 -18
-8 -35 -17 -38 -20 -3 -3 -21 -14 -40 -23 -19 -10 -75 -39 -124 -66 l-89 -49
-2 -797 c-2 -582 1 -794 9 -787 6 4 133 70 281 146 149 76 338 173 420 215 83
43 236 121 340 175 105 54 258 132 340 175 446 230 644 330 653 330 5 0 9 -19
8 -42 -1 -24 1 -55 5 -70 4 -14 5 -29 1 -32 -5 -5 -6 -321 -2 -336 1 -3 1 -21
0 -40 -5 -84 -5 -100 0 -100 3 0 4 -28 2 -62 -4 -68 -4 -78 -2 -153 1 -27 1
-79 1 -115 -1 -36 0 -159 1 -275 l1 -210 -174 -107 c-96 -60 -180 -111 -188
-115 -7 -3 -142 -84 -299 -180 -157 -95 -288 -173 -292 -173 -3 0 -16 -9 -28
-20 -12 -11 -30 -24 -39 -28 -20 -8 -265 -153 -273 -162 -3 -3 -18 -13 -35
-22 -16 -10 -121 -73 -232 -140 -112 -68 -215 -130 -230 -138 -16 -8 -30 -17
-33 -20 -10 -10 -111 -70 -118 -70 -4 0 -19 -11 -33 -24 l-26 -24 0 -736 c0
-405 1 -736 3 -736 4 0 183 93 249 130 58 32 236 127 280 148 17 9 32 18 35
21 3 3 50 29 105 58 55 28 125 65 155 81 30 17 80 43 110 59 30 15 57 31 58
36 2 4 12 7 22 7 10 0 20 3 22 8 2 4 28 20 58 36 63 33 167 88 260 138 36 20
94 51 130 69 36 19 67 36 70 39 3 3 25 16 50 28 133 69 299 157 325 172 17 10
66 37 110 60 44 23 112 60 150 81 144 78 282 151 335 177 30 15 57 30 60 33 3
3 57 33 120 66 63 33 147 78 185 98 39 21 106 58 150 81 44 23 114 60 155 82
41 22 102 55 135 74 l59 33 1 1509 c0 829 -2 1511 -5 1515 -3 4 -25 18 -50 32
-25 13 -47 26 -50 29 -3 3 -48 26 -100 53 -142 71 -323 167 -337 179 -7 6 -13
7 -13 3 0 -4 -6 -2 -14 4 -8 7 -49 30 -92 52 -210 108 -350 183 -361 192 -7 5
-13 6 -13 2 0 -5 -8 -1 -17 7 -17 14 -63 39 -243 131 -41 21 -124 64 -185 97
-60 32 -112 59 -115 59 -3 1 -45 -22 -94 -49z"/>
</g>
</svg>
