<svg viewBox="0 0 256 256" version="1.1" xmlns="http://www.w3.org/2000/svg">
    <path
        d="M121.182,0.951l134.441,134.438c-0.304,5.555 -0.968,11.082 -1.996,16.551l-149,-148.996c5.469,-1.024 11,-1.692 16.555,-1.993Zm41.734,4.645c11.844,3.352 23.137,8.398 33.536,14.984l39.539,39.539c6.586,10.395 11.632,21.692 14.988,33.532l-88.063,-88.055Zm-86.586,6.141l168.504,168.5c-1.867,4.207 -3.957,8.304 -6.265,12.285l-174.52,-174.52c3.977,-2.308 8.078,-4.398 12.281,-6.265Zm-33.738,21.902l180.34,180.336c-2.934,3.246 -6.027,6.344 -9.277,9.273l-180.336,-180.332c2.929,-3.25 6.027,-6.343 9.273,-9.277Zm-24.91,30.73l174.52,174.516c-3.977,2.309 -8.079,4.399 -12.282,6.266l-168.504,-168.5c1.868,-4.203 3.957,-8.305 6.266,-12.282Zm-15.059,40.579l149,149c-5.468,1.023 -11,1.687 -16.554,1.988l-134.442,-134.434c0.305,-5.558 0.969,-11.086 1.996,-16.554Zm2.649,58.289l88.058,88.058c-11.839,-3.351 -23.132,-8.402 -33.531,-14.988l-0.008,-0l-39.535,-39.531c-6.586,-10.399 -11.633,-21.696 -14.988,-33.539l0.004,-0Z"
        fill="#1d1d1d;" />
</svg>