<svg viewBox="0 0 573 80" version="1.1" xmlns="http://www.w3.org/2000/svg"
    class="absolute -bottom-xs left-xs z-0 h-2xs text-[#bfff00]">
    <path
        d="M564.338,0.296c1.914,0.032 3.981,0.903 5.637,2.555c2.937,2.938 3.41,7.195 1.058,9.547l-27.628,27.629l27.628,27.633c2.352,2.347 1.879,6.605 -1.058,9.543c-2.942,2.941 -7.195,3.414 -9.547,1.062l-33.941,-33.941c-1.118,-1.117 -1.59,-2.664 -1.469,-4.297c-0.121,-1.629 0.351,-3.18 1.469,-4.297l33.941,-33.937c1.027,-1.032 2.422,-1.52 3.91,-1.497Z"
        fill="currentColor" />
    <path
        d="M489.338,0.296c1.914,0.032 3.981,0.903 5.637,2.555c2.937,2.938 3.41,7.195 1.058,9.547l-27.628,27.629l27.628,27.633c2.352,2.347 1.879,6.605 -1.058,9.543c-2.942,2.941 -7.195,3.414 -9.547,1.062l-33.941,-33.941c-1.118,-1.117 -1.59,-2.664 -1.469,-4.297c-0.121,-1.629 0.351,-3.18 1.469,-4.297l33.941,-33.937c1.027,-1.032 2.422,-1.52 3.91,-1.497Z"
        fill="currentColor" />
    <path
        d="M414.338,0.296c1.914,0.032 3.981,0.903 5.637,2.555c2.937,2.938 3.41,7.195 1.058,9.547l-27.628,27.629l27.628,27.633c2.352,2.347 1.879,6.605 -1.058,9.543c-2.942,2.941 -7.195,3.414 -9.547,1.062l-33.941,-33.941c-1.118,-1.117 -1.59,-2.664 -1.469,-4.297c-0.121,-1.629 0.351,-3.18 1.469,-4.297l33.941,-33.937c1.027,-1.032 2.422,-1.52 3.91,-1.497Z"
        fill="currentColor" />
    <path
        d="M339.338,0.296c1.914,0.032 3.981,0.903 5.637,2.555c2.937,2.938 3.41,7.195 1.058,9.547l-27.628,27.629l27.628,27.633c2.352,2.347 1.879,6.605 -1.058,9.543c-2.942,2.941 -7.195,3.414 -9.547,1.062l-33.941,-33.941c-1.118,-1.117 -1.59,-2.664 -1.469,-4.297c-0.121,-1.629 0.351,-3.18 1.469,-4.297l33.941,-33.937c1.027,-1.032 2.422,-1.52 3.91,-1.497Z"
        fill="currentColor" />
    <path
        d="M264.338,0.296c1.914,0.032 3.981,0.903 5.637,2.555c2.937,2.938 3.41,7.195 1.058,9.547l-27.628,27.629l27.628,27.633c2.352,2.347 1.879,6.605 -1.058,9.543c-2.942,2.941 -7.195,3.414 -9.547,1.062l-33.941,-33.941c-1.118,-1.117 -1.59,-2.664 -1.469,-4.297c-0.121,-1.629 0.351,-3.18 1.469,-4.297l33.941,-33.937c1.027,-1.032 2.422,-1.52 3.91,-1.497Z"
        fill="currentColor" />
    <path
        d="M189.338,0.296c1.914,0.032 3.981,0.903 5.637,2.555c2.937,2.938 3.41,7.195 1.058,9.547l-27.628,27.629l27.628,27.633c2.352,2.347 1.879,6.605 -1.058,9.543c-2.942,2.941 -7.195,3.414 -9.547,1.062l-33.941,-33.941c-1.118,-1.117 -1.59,-2.664 -1.469,-4.297c-0.121,-1.629 0.351,-3.18 1.469,-4.297l33.941,-33.937c1.027,-1.032 2.422,-1.52 3.91,-1.497Z"
        fill="currentColor" />
    <path
        d="M114.338,0.296c1.914,0.032 3.981,0.903 5.637,2.555c2.937,2.938 3.41,7.195 1.058,9.547l-27.628,27.629l27.628,27.633c2.352,2.347 1.879,6.605 -1.058,9.543c-2.942,2.941 -7.195,3.414 -9.547,1.062l-33.941,-33.941c-1.118,-1.117 -1.59,-2.664 -1.469,-4.297c-0.121,-1.629 0.351,-3.18 1.469,-4.297l33.941,-33.937c1.027,-1.032 2.422,-1.52 3.91,-1.497Z"
        fill="currentColor" />
    <path
        d="M39.338,0.296c1.914,0.032 3.981,0.903 5.637,2.555c2.937,2.938 3.41,7.195 1.058,9.547l-27.628,27.629l27.628,27.633c2.352,2.347 1.879,6.605 -1.058,9.543c-2.942,2.941 -7.195,3.414 -9.547,1.062l-33.941,-33.941c-1.118,-1.117 -1.59,-2.664 -1.469,-4.297c-0.121,-1.629 0.351,-3.18 1.469,-4.297l33.941,-33.937c1.027,-1.032 2.422,-1.52 3.91,-1.497Z"
        fill="currentColor" />
</svg>